<svg width="147" height="61" viewBox="0 0 147 61" fill="none" xmlns="http://www.w3.org/2000/svg" style="fill:black;">
<path d="M1.76 42V41.36L5.16 39.72V17.88L1.76 16.24V15.6H15.4C18.5733 15.6 21.2667 16.12 23.48 17.16C25.6933 18.2 27.3733 19.6267 28.52 21.44C29.6933 23.2533 30.28 25.3067 30.28 27.6C30.28 29.68 29.8933 31.6 29.12 33.36C28.3733 35.12 27.32 36.64 25.96 37.92C24.6 39.2 23 40.2 21.16 40.92C19.32 41.64 17.3067 42 15.12 42H1.76ZM13.76 17.8H11.2V39.8H14.32C17.4133 39.8 19.8 38.8133 21.48 36.84C23.16 34.84 24 32.1733 24 28.84C24 25.48 23.1333 22.8 21.4 20.8C19.6933 18.8 17.1467 17.8 13.76 17.8ZM38.7903 19.4C37.937 19.4 37.2303 19.1333 36.6703 18.6C36.137 18.04 35.8703 17.3467 35.8703 16.52C35.8703 15.6667 36.137 14.9733 36.6703 14.44C37.2303 13.88 37.937 13.6 38.7903 13.6C39.6436 13.6 40.337 13.88 40.8703 14.44C41.4303 14.9733 41.7103 15.6667 41.7103 16.52C41.7103 17.3467 41.4303 18.04 40.8703 18.6C40.337 19.1333 39.6436 19.4 38.7903 19.4ZM33.3903 42V41.36L36.0703 40.08V27.92L33.5103 26.04V25.56L41.2303 23.36H41.7103V40.08L44.0703 41.36V42H33.3903ZM54.265 42L46.665 25.48L44.185 24.4V23.76H55.505V24.4L52.745 25.56V25.68L56.905 34.6H57.065L60.745 25.84V25.68L58.225 24.4V23.76H66.105V24.4L63.265 25.76L55.785 42H54.265ZM68.945 51.64C68.3317 51.64 67.945 51.5467 67.785 51.36C67.6517 51.2 67.585 50.9067 67.585 50.48V47.72L67.785 47.52H69.585C70.2517 47.52 70.7983 47.4667 71.225 47.36C71.6783 47.28 72.0783 47.0267 72.425 46.6C72.7983 46.2 73.185 45.52 73.585 44.56L74.625 42.04L66.665 25.48L64.185 24.4V23.76H75.225V24.4L72.745 25.56V25.68L77.145 34.92H77.425L80.825 25.84V25.68L78.465 24.4V23.76H86.105V24.4L83.265 25.72L75.265 45.16C75.025 45.7733 74.8117 46.28 74.625 46.68C74.465 47.1067 74.2783 47.5067 74.065 47.88C73.8517 48.28 73.545 48.76 73.145 49.32C72.6117 50.0933 71.945 50.6667 71.145 51.04C70.3717 51.44 69.6383 51.64 68.945 51.64ZM95.2828 42.4C92.5361 42.4 90.3628 41.6133 88.7628 40.04C87.1895 38.44 86.4028 36.3333 86.4028 33.72C86.4028 31.6933 86.8428 29.9067 87.7228 28.36C88.6028 26.7867 89.7895 25.56 91.2828 24.68C92.7761 23.8 94.4428 23.36 96.2828 23.36C98.4428 23.36 100.123 24.08 101.323 25.52C102.523 26.96 103.136 29 103.163 31.64L103.003 31.84H91.8028V32.04C91.8028 33.16 92.0161 34.1867 92.4428 35.12C92.8695 36.0267 93.5361 36.7467 94.4428 37.28C95.3761 37.8133 96.5761 38.08 98.0428 38.08C98.8161 38.08 99.6161 37.9867 100.443 37.8C101.296 37.6133 102.176 37.2933 103.083 36.84H103.203V37.48C102.536 38.8933 101.509 40.0667 100.123 41C98.7628 41.9333 97.1495 42.4 95.2828 42.4ZM95.3628 25.16C94.4295 25.16 93.6561 25.5867 93.0428 26.44C92.4561 27.2933 92.0828 28.4933 91.9228 30.04H98.6828C98.4961 28.2 98.1095 26.9333 97.5228 26.24C96.9628 25.52 96.2428 25.16 95.3628 25.16ZM113.087 42.4C111.78 42.4 110.633 42.2667 109.647 42C108.687 41.76 107.74 41.4133 106.807 40.96V36.32H107.407L108.807 38.4C109.793 39.8933 111.167 40.64 112.927 40.64C115.007 40.64 116.047 39.88 116.047 38.36C116.047 37.8 115.9 37.3467 115.607 37C115.313 36.6533 114.833 36.32 114.167 36C113.527 35.68 112.633 35.28 111.487 34.8C109.993 34.1867 108.887 33.4667 108.167 32.64C107.447 31.8133 107.087 30.7867 107.087 29.56C107.087 28.4133 107.38 27.3733 107.967 26.44C108.58 25.5067 109.407 24.76 110.447 24.2C111.487 23.64 112.66 23.36 113.967 23.36C114.873 23.36 115.753 23.4533 116.607 23.64C117.487 23.8267 118.34 24.1333 119.167 24.56V29.32H118.567L117.327 27.44C116.82 26.6667 116.3 26.0933 115.767 25.72C115.233 25.3467 114.593 25.16 113.847 25.16C113.047 25.16 112.393 25.36 111.887 25.76C111.407 26.16 111.167 26.72 111.167 27.44C111.167 27.92 111.273 28.3333 111.487 28.68C111.727 29 112.14 29.32 112.727 29.64C113.313 29.96 114.153 30.3333 115.247 30.76C115.993 31.0533 116.727 31.4 117.447 31.8C118.193 32.1733 118.807 32.72 119.287 33.44C119.793 34.1333 120.047 35.1067 120.047 36.36C120.047 37.6133 119.713 38.6933 119.047 39.6C118.38 40.5067 117.513 41.2 116.447 41.68C115.407 42.16 114.287 42.4 113.087 42.4ZM123.428 42V41.36L126.108 40.08V16.56L123.548 14.68V14.2L131.228 12H131.708V26.32H131.868C132.828 25.3867 133.761 24.6667 134.668 24.16C135.574 23.6267 136.641 23.36 137.868 23.36C139.494 23.36 140.814 23.7733 141.828 24.6C142.868 25.4267 143.388 26.6533 143.388 28.28V40.08L146.068 41.36V42H135.748V41.36L137.748 40.12V29.92C137.748 28.9867 137.468 28.28 136.908 27.8C136.374 27.2933 135.694 27.04 134.868 27.04C134.361 27.04 133.801 27.1333 133.188 27.32C132.601 27.5067 132.108 27.7733 131.708 28.12V40.12L133.748 41.36V42H123.428Z" fill="#D80404"/>
<path d="M91.112 52.08C90.7813 52.08 90.5013 52.0507 90.272 51.992C90.0427 51.928 89.8053 51.8347 89.56 51.712L89.48 50.4H89.608L90 51.248C90.192 51.408 90.3787 51.5253 90.56 51.6C90.7413 51.6693 90.9253 51.704 91.112 51.704C91.4267 51.704 91.672 51.6213 91.848 51.456C92.0293 51.2907 92.12 51.0667 92.12 50.784C92.12 50.5493 92.0667 50.3653 91.96 50.232C91.8587 50.0987 91.7093 49.9813 91.512 49.88C91.32 49.7733 91.0907 49.6533 90.824 49.52C90.5733 49.392 90.36 49.2667 90.184 49.144C90.008 49.0213 89.8747 48.88 89.784 48.72C89.6933 48.5547 89.648 48.3493 89.648 48.104C89.648 47.9227 89.6907 47.7467 89.776 47.576C89.8667 47.4 89.9867 47.2427 90.136 47.104C90.2907 46.96 90.4613 46.848 90.648 46.768C90.84 46.6827 91.0373 46.64 91.24 46.64C91.4853 46.64 91.712 46.6693 91.92 46.728C92.128 46.7867 92.3413 46.8693 92.56 46.976L92.64 48.256H92.512L92.144 47.416C91.9573 47.2773 91.7947 47.1787 91.656 47.12C91.5173 47.056 91.3573 47.024 91.176 47.024C90.9413 47.024 90.7467 47.104 90.592 47.264C90.4427 47.424 90.368 47.6213 90.368 47.856C90.368 48.128 90.4507 48.3413 90.616 48.496C90.7813 48.6453 91.04 48.8053 91.392 48.976C91.7173 49.136 91.984 49.2853 92.192 49.424C92.4 49.5573 92.5547 49.712 92.656 49.888C92.7573 50.064 92.808 50.288 92.808 50.56C92.808 50.8107 92.7547 51.032 92.648 51.224C92.5413 51.4107 92.4027 51.568 92.232 51.696C92.0667 51.824 91.8827 51.92 91.68 51.984C91.4827 52.048 91.2933 52.08 91.112 52.08ZM95.8359 52V51.872L96.3479 51.608L98.3959 46.68H98.7559L100.772 51.584L101.308 51.872V52H99.3239V51.872L100.028 51.6L99.4279 50.12H97.4839L96.8919 51.6L97.5639 51.872V52H95.8359ZM97.6679 49.68H99.2519L98.4599 47.712L97.6679 49.68ZM104.492 52V51.872L105.132 51.552V47.168L104.492 46.848V46.72H106.556C107.116 46.72 107.556 46.8373 107.876 47.072C108.201 47.3013 108.364 47.6187 108.364 48.024C108.364 48.3227 108.263 48.592 108.06 48.832C107.857 49.0667 107.588 49.2453 107.252 49.368L108.772 51.584L109.3 51.872V52H108.148L106.596 49.576H105.852V51.544L106.452 51.872V52H104.492ZM106.372 47.16H105.852V49.136H106.42C106.756 49.136 107.033 49.0427 107.252 48.856C107.476 48.664 107.588 48.4213 107.588 48.128C107.588 47.8293 107.479 47.5947 107.26 47.424C107.041 47.248 106.745 47.16 106.372 47.16ZM114.267 52.04L112.251 47.128L111.699 46.848V46.72H113.699V46.848L113.011 47.144V47.184L114.507 50.848H114.547L116.035 47.152V47.12L115.379 46.848V46.72H117.059V46.848L116.603 47.088L114.547 52.04H114.267ZM119.364 52V51.872L119.876 51.608L121.924 46.68H122.284L124.3 51.584L124.836 51.872V52H122.852V51.872L123.556 51.6L122.956 50.12H121.012L120.42 51.6L121.092 51.872V52H119.364ZM121.196 49.68H122.78L121.988 47.712L121.196 49.68ZM128.06 52V51.872L128.7 51.552V47.168L128.06 46.848V46.72H130.06V46.848L129.42 47.168V51.552L130.06 51.872V52H128.06ZM134.841 52V51.872L135.561 51.552V49.536L133.785 47.112L133.297 46.848V46.72H135.233V46.848L134.649 47.128V47.16L136.081 49.104L137.369 47.168V47.136L136.785 46.848V46.72H138.481V46.848L137.969 47.112L136.281 49.528V51.552L137.001 51.872V52H134.841ZM140.783 52V51.872L141.295 51.608L143.343 46.68H143.703L145.719 51.584L146.255 51.872V52H144.271V51.872L144.975 51.6L144.375 50.12H142.431L141.839 51.6L142.511 51.872V52H140.783ZM142.615 49.68H144.199L143.407 47.712L142.615 49.68Z" fill="#D80404"/>
</svg>
